<?xml version="1.0" encoding="utf-8"?>
<!-- Generator: Adobe Illustrator 25.3.1, SVG Export Plug-In . SVG Version: 6.00 Build 0)  -->
<svg version="1.1" xmlns="http://www.w3.org/2000/svg" xmlns:xlink="http://www.w3.org/1999/xlink" x="0px" y="0px"
	 viewBox="0 0 1920 1080" style="enable-background:new 0 0 1920 1080;" xml:space="preserve">
<style type="text/css">
	.st0{font-family:'BebasNeue-Regular';}
	.st1{font-size:790.9423px;}
	.st2{fill:none;}
	.st3{fill:#FCFCFC;}
	.st4{fill:#FFFFFF;}
</style>
<g id="Слой_1">
	<text transform="matrix(1.3548 0 0 1 638.9995 771.293)" class="st0 st1">∞</text>
	<rect x="1785.26" y="628.23" class="st2" width="233.81" height="1.55"/>
</g>
<g id="w">
	<path class="st3" d="M1097,364l14-2l6.65,48h0.28l7.16-49h16.52l7.16,49h0.28l6.75-49l13.22,1l-10,65l-19-3l-6.66-42h-0.28
		l-7.07,42l-20,3L1097,364z"/>
</g>
<g id="a">
	<g>
		<path class="st4" d="M1207,370l18,7l-32,72l-8.01-7.93l5.95-13.55l-0.11,0.18l-11.7-6.74L1171,432l-12-5L1207,370z
			 M1194.95,418.47l14.88-33.69l-0.19-0.11l-23.96,28.46L1194.95,418.47z"/>
	</g>
</g>
<g id="r">
	<g>
		<path class="st4" d="M1267,407l16,21c4.56,7.7,5,14.58,4.31,19.76c-0.69,5.18-3.92,9.48-9.69,12.9l-4.54,2.69
			c-7.67,4.54-14.46,4.15-20.36-1.17l-0.21,0.12c1.3,4.12,1.21,7.66-0.5,10.7c-1.72,3.04-3.64,4.42-8,7l-11,6c-3,1-8,4-12,5
			c-4.95,1.24-11.16,3.52-12,5l-1-16c0.87-1.25,7-4,7-4s6.25-2.38,9-4l10.53-5.85c3.38-2,5.32-4.1,5.83-6.29
			c0.5-2.2-0.26-5.02-2.3-8.46l-3.06-5.17l-31.67,18.75L1194,451L1267,407z M1248.78,445.41c1.77,2.99,3.69,4.88,5.78,5.67
			c2.08,0.79,4.53,0.35,7.35-1.32l5.7-3.38c2.67-1.58,4.25-3.34,4.72-5.27c0.47-1.93-0.07-4.21-1.62-6.84l-4.02-6.8l-21.12,12.5
			L1248.78,445.41z"/>
	</g>
</g>
<g id="r_1_">
	<g>
		<path class="st4" d="M1299,515l-6,25c-1.68,8.79-7.29,14.66-11.27,18.07c-3.98,3.41-9.31,4.47-15.97,3.17l-5.24-1.02
			c-8.86-1.72-13.76-6.53-14.69-14.44l-0.24-0.05c-1.77,3.95-4.32,6.48-7.65,7.61c-3.33,1.12-7.52,1.19-12.56,0.22l-14.99-2.91
			c-2.44-0.47-10.3-3.5-11.85-3.58c-1.54-0.09-8.25-2.75-9.87-2.21l12.22-15.75c1.98,0.04,2.73,0.75,3.94,1.08
			c3.94,1.08,5.77,2.79,8.94,3.41l15.6,3.03c3.9,0.76,6.78,0.48,8.63-0.82c1.85-1.31,3.15-3.92,3.9-7.85l1.13-5.9l-35.91-6.83
			l2.35-17.96L1299,515z M1254.04,530.64c-0.65,3.41-0.45,6.11,0.6,8.08c1.05,1.97,3.21,3.28,6.46,3.91l6.58,1.28
			c3.09,0.6,5.46,0.34,7.11-0.79c1.65-1.13,2.76-3.19,3.33-6.19l1.48-7.76l-24.38-4.74L1254.04,530.64z"/>
	</g>
</g>
<g id="w_1_">
	<g>
		<path class="st4" d="M1246,601l-21,12l-38.73-47.47l-0.29,0.11L1207,619l-23,6l-31.07-46.7l-0.29,0.11l10.45,48.91L1148,628
			l-13-63l23-3l27,40l-5.07-3.55L1172,556l15-10L1246,601z"/>
	</g>
</g>
<g id="a_1_">
	<g>
		<path class="st4" d="M1105,626l-23-5l-1-70l15,8l-0.13,11.44l0.04-0.18l19.31,4.17L1120,565l15,1L1105,626z M1096.03,579.41
			l0.72,33.38l0.31,0.07l14.26-30.15L1096.03,579.41z"/>
	</g>
</g>
<g id="r_2_">
	<g>
		<path class="st4" d="M1042,603l-19-13c-7.26-5.24-13.13-11.96-15.01-16.36c-1.88-4.41-1.33-8.69,1.67-12.85l2.36-3.27
			c3.99-5.53,9.59-6.81,16.8-3.84l0.11-0.15c-2.98-3.07-4.49-6.06-4.55-8.95c-0.05-2.89,1.05-5.91,3.32-9.06l6.75-9.36
			c1.1-1.52,1.9-2.81,2.41-3.88c0.51-1.06,4.16-8.88,4.13-10.28l15,16c-0.11,1.23-2.62,3.12-3,4c-0.38,0.88-1.57,2.02-3,4
			l-8.53,10.14c-1.76,2.43-2.32,4.61-1.69,6.53c0.63,1.92,2.57,4.05,5.81,6.39l4.87,3.51L1067,539l14.02,10.93L1042,603z
			 M1039.84,566.49c-2.82-2.04-5.24-3.13-7.28-3.29s-3.78,0.78-5.24,2.81l-2.96,4.11c-1.39,1.93-1.82,3.74-1.29,5.43
			c0.53,1.69,2.04,3.44,4.51,5.22l6.41,4.62l10.98-15.21L1039.84,566.49z"/>
	</g>
</g>
<g id="r_3_">
	<g>
		<path class="st4" d="M989,555l-18-16c-9-8-10.03-12.43-11.15-17.15c-1.12-4.72,0.2-8.97,3.95-12.77l2.95-2.99
			c4.99-5.05,10.84-5.58,17.56-1.59l0.14-0.14c-2.45-3.52-3.44-6.74-2.99-9.68c0.46-2.94,2.1-5.84,4.94-8.71l8.44-8.55
			c1.37-1.39,2.41-2.59,3.1-3.59c0.7-1.01,4.83-10.41,5.05-11.83l12,15c-0.33,1.23-3.84,7.89-4.37,8.73
			c-0.54,0.84-1.7,2.17-3.48,3.97l-8.78,8.89c-2.2,2.22-3.15,4.35-2.86,6.38c0.29,2.03,1.86,4.45,4.71,7.26l4.27,4.22L1027,493
			l10.44,14.83L989,555z M993.13,518.97c-2.47-2.44-4.72-3.88-6.73-4.31c-2.01-0.43-3.94,0.27-5.77,2.13l-3.71,3.75
			c-1.74,1.76-2.49,3.53-2.26,5.32c0.23,1.79,1.44,3.75,3.61,5.9l5.62,5.55l13.73-13.9L993.13,518.97z"/>
	</g>
</g>
<g id="w_2_">
	<g>
		<path class="st4" d="M947,512l-11-13l40.83-43.79l-0.19-0.21L932,485l-12-14l35.67-39.78l-0.19-0.21l-44.07,29.61L901,450l59-37
			l13.36,14.32l-29.95,35.85l0.19,0.21L984,437l13,17L947,512z"/>
	</g>
</g>
<g id="a_2_">
	<g>
		<path class="st4" d="M896.21,445.78L877,432l23-59l17,8l-5.59,10.5l0.11-0.15l15.66,12.03L938,394l13,11L896.21,445.78z
			 M907.76,399.62l-13.51,30.3l0.25,0.19l25.66-20.97L907.76,399.62z"/>
	</g>
</g>
<g id="r_4_">
	<g>
		<path class="st4" d="M869,428l-23.04-4.45c-9.44-0.56-15.51-3.26-18.94-6.57c-3.43-3.32-4.56-7.42-3.39-12.32l0.92-3.85
			c1.56-6.51,6.23-9.75,14.02-9.72l0.04-0.18c-3.92-1.7-6.47-3.86-7.63-6.47c-1.16-2.62-1.3-5.78-0.41-9.48L833,370
			c0.43-1.79,1.05,1.49,1-5c-0.01-1.16-0.44-2.73-1-4l18,1c0.37,1.16-0.04,0.21-0.05,1.15c-0.01,0.95-0.29,2.58-0.85,4.91
			l-2.75,11.47c-0.69,2.87-0.37,5.06,0.94,6.57c1.32,1.51,3.92,2.74,7.81,3.67l5.84,1.4l6.44-26.89l16.9,4.04L869,428z
			 M853.66,398.67c-3.38-0.81-6.04-0.91-7.97-0.3c-1.93,0.61-3.19,2.11-3.76,4.5l-1.16,4.84c-0.54,2.27-0.25,4.08,0.89,5.43
			c1.14,1.35,3.2,2.38,6.17,3.09l7.68,1.84l4.29-17.92L853.66,398.67z"/>
	</g>
</g>
<g id="r_5_">
	<g>
		<path class="st4" d="M822,424l-25.53,6.06c-8.72,2.29-15.4,2.73-20.05,1.34c-4.64-1.39-7.63-4.63-8.96-9.69l-1.05-3.99
			c-1.77-6.74,0.81-11.98,7.73-15.71l-0.05-0.18c-4.3,0.33-7.6-0.42-9.89-2.26c-2.29-1.85-3.94-4.68-4.95-8.52l-2.99-11.41
			c-0.49-1.86-0.98-3.33-1.49-4.42c-0.5-1.09-1.31-2.09-2.43-2.98L770,367c0.89,0.89,1.16,2.49,1.6,3.36
			c0.45,0.87,0.99,2.52,1.62,4.93l3.11,11.87c0.78,2.97,2.12,4.83,4.02,5.59c1.9,0.76,4.8,0.62,8.7-0.4l5.85-1.53L790,363l19-2
			L822,424z M791.17,401.71c-3.39,0.89-5.79,2.08-7.21,3.57c-1.42,1.49-1.8,3.48-1.15,5.95l1.31,5.01c0.62,2.35,1.75,3.87,3.42,4.56
			c1.66,0.69,3.98,0.64,6.96-0.14l7.7-2.02l-4.86-18.55L791.17,401.71z"/>
	</g>
</g>
<g id="w_3_">
	<g>
		<path class="st4" d="M785,438l-13,13l-54.72-32.1l-0.19,0.25L765,461l-6,19l-63.45-32.76l-0.19,0.25L758,495l2,17l-85-65l10-21
			l54,26l0,0l-44-40l18-18L785,438z"/>
	</g>
</g>
<g id="a_3_">
	<g>
		<path class="st4" d="M760,511l14,29l-80,35l-13-20l17-8l-1-13l-1.53-19.26L668,510l-1-21L760,511z M713,541l37-13l0,0
			l-43.52-11.58L713,541z"/>
	</g>
</g>
<g id="r_6_">
	<g>
		<path class="st4" d="M774.5,540.29L793,554c7.03,4.56,13.03,6.98,14.89,11.68c1.86,4.71,1.13,9.63-2.18,14.79l-2.61,4.05
			c-4.41,6.85-10.38,9.13-17.93,6.85l-0.12,0.19c3.06,3.03,4.57,6.18,4.54,9.45c-0.03,3.26-1.3,6.85-3.81,10.74L783,616
			c-1.21,1.88-1.43,2.72-2,4c-0.57,1.28-1.98,2.41-2,4l-18-5c0.15-1.41,2.57-4.94,3-6c0.43-1.06,2.42-3.55,4-6l3.52-5.21
			c1.94-3.02,2.61-5.56,2-7.64c-0.61-2.08-2.59-4.2-5.96-6.36l-5.05-3.25L744,613l-22-12L774.5,540.29z M773.89,578.53
			c2.92,1.88,5.46,2.76,7.61,2.63c2.15-0.13,4.03-1.45,5.65-3.96l3.27-5.09c1.54-2.39,2.05-4.5,1.54-6.34
			c-0.51-1.84-2.05-3.58-4.62-5.23l-6.64-4.27l-12.12,18.85L773.89,578.53z"/>
	</g>
</g>
<g id="r_7_">
	<g>
		<path class="st4" d="M810,561l15,3c8.95,0,25.89-0.41,30,2c4.11,2.41,6.73,7.45,6.73,12.45v3.93c0,6.65-3.79,10.86-11.38,12.62
			v0.18c4.21,0.73,7.19,2.23,8.93,4.48c1.74,2.26,2.61,5.28,2.61,9.06L862,614c0,1.83-0.21,3.87,0,5c0.21,1.13,1.16,5.9,2,7l-18,2
			c-0.63-1.04-0.79-4.08-1-5c-0.21-0.91-0.49-0.73-0.49-3.11v-11.71c0-2.93-0.82-4.97-2.45-6.13c-1.63-1.16-4.45-1.74-8.45-1.74h-6
			L828,628l-17.78-0.25L810,561z M833.92,591.16c3.48,0,6.08-0.52,7.82-1.56c1.74-1.04,2.61-2.77,2.61-5.21v-4.94
			c0-2.32-0.71-3.99-2.13-5.03c-1.42-1.04-3.66-1.55-6.72-1.55h-7.9v18.3H833.92z"/>
	</g>
</g>
<g id="w_4_">
	<g>
		<path class="st4" d="M855,563l17-4l28,40.15l0.29-0.13L884,553l16-13l32.25,43.83l0.29-0.14L907,533l10-13l33,68l-20,14
			l-25.84-36.09l-0.29,0.14L917,609l-23,10L855,563z"/>
	</g>
</g>
<g id="a_4_">
	<g>
		<path class="st4" d="M933.36,496.46l0.14,0.03L983,555v1l-11-12l1-1l-0.37,0.72L983,556l-11,12l-45-62L933.36,496.46 M961,537
			l-21-29l0,0l26.32,27.68L961,537z"/>
	</g>
</g>
<g id="a_5_">
	<g>
		<path class="st4" d="M982,435l6.39-7.24L1056,462l-10.41,13.32l-13.32-7.13l0.16,0.14l-12.76,15.08l9.07,11.81L1029,495L982,435z
			 M1023.4,463.38l-33.07-17.84l-0.2,0.24l23.17,29.54L1023.4,463.38z"/>
	</g>
</g>
<g id="r_8_">
	<g>
		<path class="st4" d="M1004,412l13-12c4.21-4.26,9.39-5.69,13.18-5.82c3.78-0.13,7.6,1.71,11.44,5.5l3.02,2.99
			c5.11,5.05,6.56,10.05,4.35,15l0.14,0.14c2.54-1.45,5.09-1.73,7.64-0.85c2.55,0.88,5.28,2.76,8.19,5.63l8.65,8.54
			c1.41,1.39,2.59,2.46,3.56,3.22c0.97,0.76,4.59,2.22,5.83,2.65l-11,8c-1.09-0.49-1.89-1.47-2.69-2.06
			c-0.8-0.59-2.12-1.79-3.94-3.6l-9-8.89c-2.25-2.22-4.2-3.38-5.86-3.49c-1.66-0.1-3.43,0.8-5.31,2.71l-2.82,2.86l21.09,20.83
			L1056,462L1004,412z M1038.31,422.58c1.64-1.66,2.46-3.29,2.49-4.91c0.02-1.62-0.91-3.35-2.78-5.2l-3.8-3.75
			c-1.78-1.76-3.4-2.69-4.87-2.8c-1.47-0.11-2.92,0.56-4.35,2.02l-3.72,3.76l14.06,13.89L1038.31,422.58z"/>
	</g>
</g>
<g id="r_9_">
	<g>
		<path class="st4" d="M1050,379l15.52-6.36c5.33-2.58,9.76-3.34,13.3-2.28c3.53,1.06,6.43,3.93,8.68,8.59l1.78,3.67
			c3,6.2,2.64,11.22-1.08,15.05l0.08,0.17c2.84-0.53,5.29,0,7.34,1.61c2.05,1.6,3.93,4.17,5.64,7.69L1105,418
			c0.2,4.13,2.49,4.63,2,5c-2.22,1.67,3,2.22,4,3l-11,3c-0.84-0.78-2.46-2.21-3-3c-0.54-0.79-1.93-2.78-3-5l-3.34-9.36
			c-1.32-2.73-2.73-4.4-4.22-5.01c-1.5-0.61-3.43-0.34-5.82,0.81l-3.58,1.73L1090,433l-9,6L1050,379z M1076.68,398.82
			c2.07-1,3.39-2.24,3.96-3.7c0.57-1.47,0.3-3.34-0.8-5.61l-2.23-4.61c-1.05-2.16-2.23-3.52-3.54-4.08c-1.31-0.56-2.88-0.4-4.7,0.48
			l-4.71,2.28l8.26,17.06L1076.68,398.82z"/>
	</g>
</g>
</svg>
